<svg id="visual" viewBox="0 0 900 600" width="900" height="600" xmlns="http://www.w3.org/2000/svg" xmlns:xlink="http://www.w3.org/1999/xlink" version="1.1"><g stroke-width="1" stroke-linejoin="bevel"><path d="M482 307L487 311L538 274Z" fill="#630301" stroke="#630301"></path><path d="M487 311L541 284L538 274Z" fill="#560000" stroke="#560000"></path><path d="M538 274L438 260L482 307Z" fill="#000000" stroke="#000000"></path><path d="M444 368L489 363L487 311Z" fill="#6a0602" stroke="#6a0602"></path><path d="M487 311L489 363L541 284Z" fill="#700902" stroke="#700902"></path><path d="M444 368L487 311L482 307Z" fill="#000000" stroke="#000000"></path><path d="M538 274L512 191L438 260Z" fill="#700902" stroke="#700902"></path><path d="M541 284L598 281L538 274Z" fill="#630301" stroke="#630301"></path><path d="M538 274L572 159L512 191Z" fill="#470000" stroke="#470000"></path><path d="M588 330L598 281L541 284Z" fill="#630301" stroke="#630301"></path><path d="M489 363L588 330L541 284Z" fill="#770d01" stroke="#770d01"></path><path d="M357 246L410 284L438 260Z" fill="#770d01" stroke="#770d01"></path><path d="M438 260L410 284L482 307Z" fill="#5d0101" stroke="#5d0101"></path><path d="M512 191L472 189L438 260Z" fill="#470000" stroke="#470000"></path><path d="M410 284L444 368L482 307Z" fill="#4e0000" stroke="#4e0000"></path><path d="M502 443L565 384L489 363Z" fill="#700902" stroke="#700902"></path><path d="M489 363L565 384L588 330Z" fill="#770d01" stroke="#770d01"></path><path d="M457 170L437 187L472 189Z" fill="#400000" stroke="#400000"></path><path d="M472 189L437 187L438 260Z" fill="#4e0000" stroke="#4e0000"></path><path d="M512 191L457 170L472 189Z" fill="#700902" stroke="#700902"></path><path d="M357 246L380 300L410 284Z" fill="#560000" stroke="#560000"></path><path d="M410 284L380 300L444 368Z" fill="#630301" stroke="#630301"></path><path d="M565 384L611 356L588 330Z" fill="#400000" stroke="#400000"></path><path d="M588 330L611 356L598 281Z" fill="#400000" stroke="#400000"></path><path d="M502 443L584 396L565 384Z" fill="#4e0000" stroke="#4e0000"></path><path d="M565 384L584 396L611 356Z" fill="#6a0602" stroke="#6a0602"></path><path d="M598 281L572 159L538 274Z" fill="#560000" stroke="#560000"></path><path d="M512 191L494 90L457 170Z" fill="#630301" stroke="#630301"></path><path d="M457 170L411 176L437 187Z" fill="#400000" stroke="#400000"></path><path d="M437 187L411 176L438 260Z" fill="#3a0000" stroke="#3a0000"></path><path d="M357 246L364 310L380 300Z" fill="#630301" stroke="#630301"></path><path d="M380 300L364 310L444 368Z" fill="#5d0101" stroke="#5d0101"></path><path d="M411 176L357 246L438 260Z" fill="#000000" stroke="#000000"></path><path d="M679 198L577 147L572 159Z" fill="#3a0000" stroke="#3a0000"></path><path d="M572 159L553 125L512 191Z" fill="#630301" stroke="#630301"></path><path d="M457 170L423 79L411 176Z" fill="#5d0101" stroke="#5d0101"></path><path d="M679 198L572 159L598 281Z" fill="#4e0000" stroke="#4e0000"></path><path d="M584 396L641 366L611 356Z" fill="#470000" stroke="#470000"></path><path d="M611 356L641 366L598 281Z" fill="#470000" stroke="#470000"></path><path d="M437 436L489 363L444 368Z" fill="#4e0000" stroke="#4e0000"></path><path d="M437 436L502 443L489 363Z" fill="#560000" stroke="#560000"></path><path d="M584 396L690 459L641 366Z" fill="#3a0000" stroke="#3a0000"></path><path d="M577 147L553 125L572 159Z" fill="#6a0602" stroke="#6a0602"></path><path d="M337 350L437 436L444 368Z" fill="#4e0000" stroke="#4e0000"></path><path d="M301 305L337 350L364 310Z" fill="#700902" stroke="#700902"></path><path d="M364 310L337 350L444 368Z" fill="#630301" stroke="#630301"></path><path d="M336 461L453 468L437 436Z" fill="#700902" stroke="#700902"></path><path d="M437 436L453 468L502 443Z" fill="#4e0000" stroke="#4e0000"></path><path d="M553 125L494 90L512 191Z" fill="#5d0101" stroke="#5d0101"></path><path d="M710 225L679 198L598 281Z" fill="#6a0602" stroke="#6a0602"></path><path d="M577 147L617 55L553 125Z" fill="#4e0000" stroke="#4e0000"></path><path d="M551 0L516 9L494 90Z" fill="#5d0101" stroke="#5d0101"></path><path d="M357 246L301 305L364 310Z" fill="#5d0101" stroke="#5d0101"></path><path d="M292 296L301 305L357 246Z" fill="#630301" stroke="#630301"></path><path d="M713 229L710 225L598 281Z" fill="#560000" stroke="#560000"></path><path d="M274 268L292 296L357 246Z" fill="#000000" stroke="#000000"></path><path d="M301 305L299 362L337 350Z" fill="#560000" stroke="#560000"></path><path d="M308 163L357 246L411 176Z" fill="#5d0101" stroke="#5d0101"></path><path d="M641 366L713 229L598 281Z" fill="#6a0602" stroke="#6a0602"></path><path d="M494 90L423 79L457 170Z" fill="#6a0602" stroke="#6a0602"></path><path d="M587 493L590 487L502 443Z" fill="#770d01" stroke="#770d01"></path><path d="M502 443L590 487L584 396Z" fill="#560000" stroke="#560000"></path><path d="M641 366L736 376L713 229Z" fill="#700902" stroke="#700902"></path><path d="M261 369L299 362L301 305Z" fill="#3a0000" stroke="#3a0000"></path><path d="M337 350L328 441L437 436Z" fill="#630301" stroke="#630301"></path><path d="M572 522L587 493L546 529Z" fill="#4e0000" stroke="#4e0000"></path><path d="M349 556L485 510L453 468Z" fill="#700902" stroke="#700902"></path><path d="M453 468L485 510L502 443Z" fill="#3a0000" stroke="#3a0000"></path><path d="M350 53L308 163L411 176Z" fill="#6a0602" stroke="#6a0602"></path><path d="M258 228L274 268L357 246Z" fill="#700902" stroke="#700902"></path><path d="M292 296L261 369L301 305Z" fill="#6a0602" stroke="#6a0602"></path><path d="M304 431L328 441L337 350Z" fill="#400000" stroke="#400000"></path><path d="M710 225L714 159L679 198Z" fill="#4e0000" stroke="#4e0000"></path><path d="M679 198L657 86L577 147Z" fill="#630301" stroke="#630301"></path><path d="M789 221L714 159L710 225Z" fill="#6a0602" stroke="#6a0602"></path><path d="M328 441L336 461L437 436Z" fill="#5d0101" stroke="#5d0101"></path><path d="M546 529L587 493L502 443Z" fill="#630301" stroke="#630301"></path><path d="M701 106L657 86L679 198Z" fill="#5d0101" stroke="#5d0101"></path><path d="M494 90L444 29L423 79Z" fill="#560000" stroke="#560000"></path><path d="M690 459L590 487L671 504Z" fill="#6a0602" stroke="#6a0602"></path><path d="M690 459L584 396L590 487Z" fill="#470000" stroke="#470000"></path><path d="M690 459L736 376L641 366Z" fill="#700902" stroke="#700902"></path><path d="M801 136L728 121L714 159Z" fill="#770d01" stroke="#770d01"></path><path d="M485 510L546 529L502 443Z" fill="#6a0602" stroke="#6a0602"></path><path d="M299 362L304 431L337 350Z" fill="#470000" stroke="#470000"></path><path d="M328 441L304 431L336 461Z" fill="#4e0000" stroke="#4e0000"></path><path d="M261 369L304 431L299 362Z" fill="#4e0000" stroke="#4e0000"></path><path d="M448 600L537 532L485 510Z" fill="#3a0000" stroke="#3a0000"></path><path d="M485 510L537 532L546 529Z" fill="#630301" stroke="#630301"></path><path d="M611 600L670 563L572 522Z" fill="#470000" stroke="#470000"></path><path d="M308 163L258 228L357 246Z" fill="#400000" stroke="#400000"></path><path d="M227 311L261 369L292 296Z" fill="#700902" stroke="#700902"></path><path d="M657 86L617 55L577 147Z" fill="#700902" stroke="#700902"></path><path d="M671 504L590 487L587 493Z" fill="#560000" stroke="#560000"></path><path d="M227 311L292 296L274 268Z" fill="#560000" stroke="#560000"></path><path d="M516 9L444 29L494 90Z" fill="#4e0000" stroke="#4e0000"></path><path d="M246 83L274 160L308 163Z" fill="#400000" stroke="#400000"></path><path d="M350 53L411 176L423 79Z" fill="#630301" stroke="#630301"></path><path d="M308 163L274 160L258 228Z" fill="#770d01" stroke="#770d01"></path><path d="M714 159L701 106L679 198Z" fill="#560000" stroke="#560000"></path><path d="M657 86L661 42L617 55Z" fill="#770d01" stroke="#770d01"></path><path d="M732 438L752 399L736 376Z" fill="#560000" stroke="#560000"></path><path d="M736 376L784 284L713 229Z" fill="#4e0000" stroke="#4e0000"></path><path d="M551 0L494 90L553 125Z" fill="#3a0000" stroke="#3a0000"></path><path d="M728 121L700 89L701 106Z" fill="#5d0101" stroke="#5d0101"></path><path d="M701 106L700 89L657 86Z" fill="#4e0000" stroke="#4e0000"></path><path d="M617 55L551 0L553 125Z" fill="#4e0000" stroke="#4e0000"></path><path d="M725 485L732 438L690 459Z" fill="#3a0000" stroke="#3a0000"></path><path d="M690 459L732 438L736 376Z" fill="#6a0602" stroke="#6a0602"></path><path d="M789 221L710 225L713 229Z" fill="#400000" stroke="#400000"></path><path d="M714 159L728 121L701 106Z" fill="#3a0000" stroke="#3a0000"></path><path d="M706 521L671 504L670 563Z" fill="#6a0602" stroke="#6a0602"></path><path d="M572 522L671 504L587 493Z" fill="#400000" stroke="#400000"></path><path d="M274 160L248 181L258 228Z" fill="#700902" stroke="#700902"></path><path d="M223 250L227 311L274 268Z" fill="#4e0000" stroke="#4e0000"></path><path d="M381 0L423 79L444 29Z" fill="#560000" stroke="#560000"></path><path d="M381 0L350 53L423 79Z" fill="#6a0602" stroke="#6a0602"></path><path d="M274 160L182 115L248 181Z" fill="#3a0000" stroke="#3a0000"></path><path d="M791 285L784 284L789 317Z" fill="#000000" stroke="#000000"></path><path d="M223 250L274 268L258 228Z" fill="#400000" stroke="#400000"></path><path d="M248 181L223 250L258 228Z" fill="#6a0602" stroke="#6a0602"></path><path d="M516 9L469 0L444 29Z" fill="#400000" stroke="#400000"></path><path d="M789 317L784 284L736 376Z" fill="#630301" stroke="#630301"></path><path d="M784 284L789 221L713 229Z" fill="#700902" stroke="#700902"></path><path d="M788 347L789 317L736 376Z" fill="#000000" stroke="#000000"></path><path d="M641 0L551 0L617 55Z" fill="#5d0101" stroke="#5d0101"></path><path d="M516 9L551 0L469 0Z" fill="#630301" stroke="#630301"></path><path d="M641 0L661 42L719 0Z" fill="#3a0000" stroke="#3a0000"></path><path d="M700 89L661 42L657 86Z" fill="#400000" stroke="#400000"></path><path d="M752 399L788 347L736 376Z" fill="#470000" stroke="#470000"></path><path d="M789 317L855 297L791 285Z" fill="#5d0101" stroke="#5d0101"></path><path d="M810 346L788 347L817 370Z" fill="#000000" stroke="#000000"></path><path d="M791 285L789 221L784 284Z" fill="#470000" stroke="#470000"></path><path d="M304 431L273 461L336 461Z" fill="#000000" stroke="#000000"></path><path d="M336 461L349 556L453 468Z" fill="#770d01" stroke="#770d01"></path><path d="M234 413L273 461L304 431Z" fill="#770d01" stroke="#770d01"></path><path d="M234 413L304 431L261 369Z" fill="#5d0101" stroke="#5d0101"></path><path d="M671 504L725 485L690 459Z" fill="#470000" stroke="#470000"></path><path d="M824 475L817 370L752 399Z" fill="#4e0000" stroke="#4e0000"></path><path d="M222 391L234 413L261 369Z" fill="#770d01" stroke="#770d01"></path><path d="M223 250L205 307L227 311Z" fill="#5d0101" stroke="#5d0101"></path><path d="M227 311L222 391L261 369Z" fill="#630301" stroke="#630301"></path><path d="M205 307L222 391L227 311Z" fill="#000000" stroke="#000000"></path><path d="M469 0L381 0L444 29Z" fill="#000000" stroke="#000000"></path><path d="M350 53L246 83L308 163Z" fill="#700902" stroke="#700902"></path><path d="M788 347L810 346L789 317Z" fill="#3a0000" stroke="#3a0000"></path><path d="M791 285L855 297L789 221Z" fill="#700902" stroke="#700902"></path><path d="M817 370L788 347L752 399Z" fill="#470000" stroke="#470000"></path><path d="M671 504L706 521L725 485Z" fill="#630301" stroke="#630301"></path><path d="M824 475L752 399L732 438Z" fill="#700902" stroke="#700902"></path><path d="M670 563L671 504L572 522Z" fill="#770d01" stroke="#770d01"></path><path d="M719 0L661 42L700 89Z" fill="#630301" stroke="#630301"></path><path d="M661 42L641 0L617 55Z" fill="#630301" stroke="#630301"></path><path d="M298 542L336 461L273 461Z" fill="#770d01" stroke="#770d01"></path><path d="M298 542L349 556L336 461Z" fill="#770d01" stroke="#770d01"></path><path d="M589 600L572 522L546 529Z" fill="#630301" stroke="#630301"></path><path d="M801 136L749 81L728 121Z" fill="#470000" stroke="#470000"></path><path d="M728 121L749 81L700 89Z" fill="#700902" stroke="#700902"></path><path d="M381 0L363 0L350 53Z" fill="#4e0000" stroke="#4e0000"></path><path d="M349 556L443 597L485 510Z" fill="#6a0602" stroke="#6a0602"></path><path d="M392 600L448 600L443 597Z" fill="#4e0000" stroke="#4e0000"></path><path d="M443 597L448 600L485 510Z" fill="#770d01" stroke="#770d01"></path><path d="M805 495L732 438L725 485Z" fill="#3a0000" stroke="#3a0000"></path><path d="M831 138L801 136L789 221Z" fill="#6a0602" stroke="#6a0602"></path><path d="M181 411L242 472L234 413Z" fill="#560000" stroke="#560000"></path><path d="M234 413L242 472L273 461Z" fill="#770d01" stroke="#770d01"></path><path d="M589 600L546 529L537 532Z" fill="#000000" stroke="#000000"></path><path d="M263 16L246 83L350 53Z" fill="#470000" stroke="#470000"></path><path d="M248 181L170 184L223 250Z" fill="#630301" stroke="#630301"></path><path d="M223 250L132 283L205 307Z" fill="#6a0602" stroke="#6a0602"></path><path d="M448 600L589 600L537 532Z" fill="#700902" stroke="#700902"></path><path d="M789 221L801 136L714 159Z" fill="#400000" stroke="#400000"></path><path d="M855 297L789 317L810 346Z" fill="#000000" stroke="#000000"></path><path d="M242 472L298 542L273 461Z" fill="#560000" stroke="#560000"></path><path d="M349 556L392 600L443 597Z" fill="#770d01" stroke="#770d01"></path><path d="M589 600L611 600L572 522Z" fill="#630301" stroke="#630301"></path><path d="M298 542L346 577L349 556Z" fill="#4e0000" stroke="#4e0000"></path><path d="M346 577L392 600L349 556Z" fill="#6a0602" stroke="#6a0602"></path><path d="M205 307L180 386L222 391Z" fill="#470000" stroke="#470000"></path><path d="M222 391L181 411L234 413Z" fill="#470000" stroke="#470000"></path><path d="M113 313L180 386L205 307Z" fill="#6a0602" stroke="#6a0602"></path><path d="M363 0L308 0L350 53Z" fill="#4e0000" stroke="#4e0000"></path><path d="M180 386L181 411L222 391Z" fill="#630301" stroke="#630301"></path><path d="M273 600L295 587L298 542Z" fill="#6a0602" stroke="#6a0602"></path><path d="M180 151L248 181L182 115Z" fill="#4e0000" stroke="#4e0000"></path><path d="M180 151L170 184L248 181Z" fill="#3a0000" stroke="#3a0000"></path><path d="M180 386L105 368L181 411Z" fill="#6a0602" stroke="#6a0602"></path><path d="M900 347L855 297L810 346Z" fill="#630301" stroke="#630301"></path><path d="M182 115L274 160L246 83Z" fill="#560000" stroke="#560000"></path><path d="M722 0L719 0L749 81Z" fill="#000000" stroke="#000000"></path><path d="M749 81L719 0L700 89Z" fill="#560000" stroke="#560000"></path><path d="M766 0L722 0L749 81Z" fill="#000000" stroke="#000000"></path><path d="M900 172L831 138L789 221Z" fill="#6a0602" stroke="#6a0602"></path><path d="M801 136L835 69L749 81Z" fill="#3a0000" stroke="#3a0000"></path><path d="M308 0L263 16L350 53Z" fill="#000000" stroke="#000000"></path><path d="M611 600L679 600L670 563Z" fill="#3a0000" stroke="#3a0000"></path><path d="M670 563L721 600L706 521Z" fill="#770d01" stroke="#770d01"></path><path d="M706 521L805 495L725 485Z" fill="#6a0602" stroke="#6a0602"></path><path d="M204 68L182 115L246 83Z" fill="#700902" stroke="#700902"></path><path d="M180 151L123 135L170 184Z" fill="#700902" stroke="#700902"></path><path d="M722 600L805 495L706 521Z" fill="#000000" stroke="#000000"></path><path d="M817 370L900 347L810 346Z" fill="#700902" stroke="#700902"></path><path d="M298 542L295 587L346 577Z" fill="#560000" stroke="#560000"></path><path d="M346 577L313 600L392 600Z" fill="#400000" stroke="#400000"></path><path d="M273 600L298 542L181 525Z" fill="#400000" stroke="#400000"></path><path d="M263 16L204 68L246 83Z" fill="#5d0101" stroke="#5d0101"></path><path d="M295 587L313 600L346 577Z" fill="#000000" stroke="#000000"></path><path d="M805 495L824 475L732 438Z" fill="#470000" stroke="#470000"></path><path d="M170 184L132 283L223 250Z" fill="#000000" stroke="#000000"></path><path d="M128 290L132 283L106 296Z" fill="#470000" stroke="#470000"></path><path d="M106 296L132 283L85 210Z" fill="#6a0602" stroke="#6a0602"></path><path d="M132 283L128 290L205 307Z" fill="#470000" stroke="#470000"></path><path d="M273 600L298 600L295 587Z" fill="#700902" stroke="#700902"></path><path d="M295 587L298 600L313 600Z" fill="#470000" stroke="#470000"></path><path d="M679 600L721 600L670 563Z" fill="#5d0101" stroke="#5d0101"></path><path d="M805 495L852 483L824 475Z" fill="#630301" stroke="#630301"></path><path d="M721 600L722 600L706 521Z" fill="#3a0000" stroke="#3a0000"></path><path d="M835 69L766 0L749 81Z" fill="#630301" stroke="#630301"></path><path d="M119 80L150 121L182 115Z" fill="#6a0602" stroke="#6a0602"></path><path d="M182 115L150 121L180 151Z" fill="#000000" stroke="#000000"></path><path d="M891 120L835 69L831 138Z" fill="#770d01" stroke="#770d01"></path><path d="M831 138L835 69L801 136Z" fill="#3a0000" stroke="#3a0000"></path><path d="M181 525L298 542L242 472Z" fill="#560000" stroke="#560000"></path><path d="M128 290L113 313L205 307Z" fill="#4e0000" stroke="#4e0000"></path><path d="M181 411L181 525L242 472Z" fill="#470000" stroke="#470000"></path><path d="M106 296L113 313L128 290Z" fill="#6a0602" stroke="#6a0602"></path><path d="M900 347L900 246L855 297Z" fill="#6a0602" stroke="#6a0602"></path><path d="M855 297L900 246L789 221Z" fill="#000000" stroke="#000000"></path><path d="M85 210L132 283L170 184Z" fill="#3a0000" stroke="#3a0000"></path><path d="M900 354L900 347L817 370Z" fill="#630301" stroke="#630301"></path><path d="M900 557L852 483L805 495Z" fill="#470000" stroke="#470000"></path><path d="M824 475L852 483L817 370Z" fill="#4e0000" stroke="#4e0000"></path><path d="M900 365L900 354L817 370Z" fill="#6a0602" stroke="#6a0602"></path><path d="M204 68L119 80L182 115Z" fill="#000000" stroke="#000000"></path><path d="M263 16L220 0L204 68Z" fill="#560000" stroke="#560000"></path><path d="M308 0L220 0L263 16Z" fill="#770d01" stroke="#770d01"></path><path d="M900 469L900 365L817 370Z" fill="#630301" stroke="#630301"></path><path d="M105 368L180 386L113 313Z" fill="#470000" stroke="#470000"></path><path d="M112 504L181 525L181 411Z" fill="#000000" stroke="#000000"></path><path d="M39 289L105 368L113 313Z" fill="#470000" stroke="#470000"></path><path d="M900 246L900 172L789 221Z" fill="#5d0101" stroke="#5d0101"></path><path d="M119 80L123 135L150 121Z" fill="#6a0602" stroke="#6a0602"></path><path d="M150 121L123 135L180 151Z" fill="#700902" stroke="#700902"></path><path d="M900 172L891 120L831 138Z" fill="#4e0000" stroke="#4e0000"></path><path d="M835 69L895 0L766 0Z" fill="#3a0000" stroke="#3a0000"></path><path d="M87 156L85 210L170 184Z" fill="#000000" stroke="#000000"></path><path d="M106 296L39 289L113 313Z" fill="#400000" stroke="#400000"></path><path d="M900 172L900 106L891 120Z" fill="#5d0101" stroke="#5d0101"></path><path d="M891 120L900 106L835 69Z" fill="#700902" stroke="#700902"></path><path d="M220 0L178 0L204 68Z" fill="#000000" stroke="#000000"></path><path d="M123 135L87 156L170 184Z" fill="#4e0000" stroke="#4e0000"></path><path d="M900 557L900 469L852 483Z" fill="#700902" stroke="#700902"></path><path d="M852 483L900 469L817 370Z" fill="#3a0000" stroke="#3a0000"></path><path d="M123 40L119 80L204 68Z" fill="#560000" stroke="#560000"></path><path d="M119 80L87 156L123 135Z" fill="#470000" stroke="#470000"></path><path d="M105 368L112 504L181 411Z" fill="#470000" stroke="#470000"></path><path d="M181 525L177 595L273 600Z" fill="#630301" stroke="#630301"></path><path d="M109 514L112 504L37 431Z" fill="#630301" stroke="#630301"></path><path d="M178 0L123 40L204 68Z" fill="#560000" stroke="#560000"></path><path d="M0 179L85 210L87 156Z" fill="#630301" stroke="#630301"></path><path d="M134 600L177 595L181 525Z" fill="#6a0602" stroke="#6a0602"></path><path d="M134 600L180 600L177 595Z" fill="#5d0101" stroke="#5d0101"></path><path d="M177 595L180 600L273 600Z" fill="#700902" stroke="#700902"></path><path d="M178 0L147 0L123 40Z" fill="#3a0000" stroke="#3a0000"></path><path d="M46 422L112 504L105 368Z" fill="#770d01" stroke="#770d01"></path><path d="M112 504L114 526L181 525Z" fill="#4e0000" stroke="#4e0000"></path><path d="M109 514L114 526L112 504Z" fill="#6a0602" stroke="#6a0602"></path><path d="M0 304L39 289L0 224Z" fill="#630301" stroke="#630301"></path><path d="M85 210L39 289L106 296Z" fill="#5d0101" stroke="#5d0101"></path><path d="M39 289L85 210L0 224Z" fill="#3a0000" stroke="#3a0000"></path><path d="M900 106L900 18L835 69Z" fill="#470000" stroke="#470000"></path><path d="M0 375L46 422L105 368Z" fill="#5d0101" stroke="#5d0101"></path><path d="M109 514L0 531L114 526Z" fill="#4e0000" stroke="#4e0000"></path><path d="M896 600L900 557L805 495Z" fill="#560000" stroke="#560000"></path><path d="M900 18L895 0L835 69Z" fill="#5d0101" stroke="#5d0101"></path><path d="M900 18L900 0L895 0Z" fill="#700902" stroke="#700902"></path><path d="M41 610L134 600L114 526Z" fill="#770d01" stroke="#770d01"></path><path d="M114 526L134 600L181 525Z" fill="#6a0602" stroke="#6a0602"></path><path d="M0 410L37 431L46 422Z" fill="#630301" stroke="#630301"></path><path d="M46 422L37 431L112 504Z" fill="#5d0101" stroke="#5d0101"></path><path d="M722 600L896 600L805 495Z" fill="#5d0101" stroke="#5d0101"></path><path d="M0 224L85 210L0 179Z" fill="#5d0101" stroke="#5d0101"></path><path d="M39 289L0 375L105 368Z" fill="#630301" stroke="#630301"></path><path d="M896 600L900 600L900 557Z" fill="#560000" stroke="#560000"></path><path d="M82 0L119 80L123 40Z" fill="#770d01" stroke="#770d01"></path><path d="M0 179L87 156L0 154Z" fill="#560000" stroke="#560000"></path><path d="M147 0L82 0L123 40Z" fill="#400000" stroke="#400000"></path><path d="M0 304L0 375L39 289Z" fill="#000000" stroke="#000000"></path><path d="M37 431L0 531L109 514Z" fill="#560000" stroke="#560000"></path><path d="M0 154L87 156L0 49Z" fill="#5d0101" stroke="#5d0101"></path><path d="M0 375L0 410L46 422Z" fill="#560000" stroke="#560000"></path><path d="M0 49L87 156L119 80Z" fill="#6a0602" stroke="#6a0602"></path><path d="M82 0L0 49L119 80Z" fill="#560000" stroke="#560000"></path><path d="M0 410L0 531L37 431Z" fill="#000000" stroke="#000000"></path><path d="M0 531L41 610L114 526Z" fill="#700902" stroke="#700902"></path><path d="M134 600L41 610L180 600Z" fill="#3a0000" stroke="#3a0000"></path><path d="M180 600L41 610L273 600Z" fill="#3a0000" stroke="#3a0000"></path><path d="M273 600L41 610L298 600Z" fill="#000000" stroke="#000000"></path><path d="M298 600L41 610L313 600Z" fill="#470000" stroke="#470000"></path><path d="M313 600L41 610L392 600Z" fill="#3a0000" stroke="#3a0000"></path><path d="M392 600L41 610L448 600Z" fill="#000000" stroke="#000000"></path><path d="M448 600L41 610L589 600Z" fill="#000000" stroke="#000000"></path><path d="M589 600L41 610L611 600Z" fill="#770d01" stroke="#770d01"></path><path d="M611 600L41 610L679 600Z" fill="#770d01" stroke="#770d01"></path><path d="M679 600L41 610L721 600Z" fill="#6a0602" stroke="#6a0602"></path><path d="M721 600L41 610L722 600Z" fill="#770d01" stroke="#770d01"></path><path d="M722 600L41 610L896 600Z" fill="#770d01" stroke="#770d01"></path><path d="M896 600L41 610L900 600Z" fill="#3a0000" stroke="#3a0000"></path><path d="M82 0L0 0L0 49Z" fill="#560000" stroke="#560000"></path><path d="M0 531L0 600L41 610Z" fill="#630301" stroke="#630301"></path><path d="M0 600L0 601L41 610Z" fill="#400000" stroke="#400000"></path><path d="M0 531L-1 600L0 600Z" fill="#4e0000" stroke="#4e0000"></path><path d="M0 600L-1 600L0 601Z" fill="#700902" stroke="#700902"></path><path d="M0 410L-1 600L0 531Z" fill="#5d0101" stroke="#5d0101"></path><path d="M0 375L-1 600L0 410Z" fill="#3a0000" stroke="#3a0000"></path><path d="M0 304L-1 600L0 375Z" fill="#5d0101" stroke="#5d0101"></path><path d="M0 224L-1 600L0 304Z" fill="#630301" stroke="#630301"></path><path d="M0 179L-1 600L0 224Z" fill="#3a0000" stroke="#3a0000"></path><path d="M0 154L-1 600L0 179Z" fill="#400000" stroke="#400000"></path><path d="M0 49L-1 600L0 154Z" fill="#4e0000" stroke="#4e0000"></path><path d="M0 0L-1 600L0 49Z" fill="#770d01" stroke="#770d01"></path></g></svg>